<svg version="1.1" xmlns="http://www.w3.org/2000/svg" xmlns:xlink="http://www.w3.org/1999/xlink" width="48" height="48"><defs><linearGradient x1="15.21827" y1="12.23187" x2="55.40915" y2="58.39554" gradientUnits="userSpaceOnUse" id="color-1"><stop offset="0" stop-color="#000000" stop-opacity="0.33"></stop><stop offset="1" stop-color="#000000" stop-opacity="0"></stop></linearGradient><filter id="dropshadow-base"><feColorMatrix type="matrix" values="0 0 0 0 0  0 0 0 0 0  0 0 0 0 0  0 0 0 .8 0"></feColorMatrix> <feOffset dx="0" dy="1"></feOffset> <feGaussianBlur stdDeviation="1"></feGaussianBlur> <feComposite in="SourceGraphic"></feComposite></filter><filter id="dropshadow-banner" x="-10%" y="-10%" width="120%" height="130%"><feColorMatrix type="matrix" values="0 0 0 0 0  0 0 0 0 0  0 0 0 0 0  0 0 0 .4 0"></feColorMatrix> <feOffset dx="0" dy="1"></feOffset> <feGaussianBlur stdDeviation="0.5"></feGaussianBlur> <feComposite in="SourceGraphic"></feComposite></filter></defs><g fill="none" fill-rule="nonzero" stroke="none" stroke-width="none" stroke-linecap="butt" stroke-linejoin="miter" stroke-miterlimit="10" stroke-dasharray="" stroke-dashoffset="0" font-family="none" font-weight="none" font-size="none" text-anchor="none" style="mix-blend-mode: normal"><path d="M2,24c0,-12.15026 9.84974,-22 22,-22c12.15026,0 22,9.84974 22,22c0,12.15026 -9.84974,22 -22,22c-12.15026,0 -22,-9.84974 -22,-22z" id="base 1 5" fill="#63c2cf" stroke-width="1"></path><path d="M17.15923,35.76813c-1.26913,-1.91247 -1.94443,-4.15753 -1.94095,-6.4528c0,-6.03795 4.57567,-11.00618 10.44794,-11.62824v-5.44866l0.00655,-0.00655l19.08219,19.08219c-2.67668,7.59566 -9.40497,13.28065 -17.58984,14.45995z" fill="url(#color-1)" stroke-width="1"></path><path transform="translate(-4.24352,-4.24352) scale(1.17681,1.17681)" d="M25.42218,14.0026l6.04012,6.04012l-6.04012,6.04012l-0.03715,-0.03715h0.03083v-5.08061c-4.46137,0.97585 -7.80089,4.95059 -7.80089,9.70542c-0.00112,1.13438 0.19238,2.26054 0.57207,3.32949c-1.07845,-1.62513 -1.65228,-3.53287 -1.64933,-5.48328c0,-5.13076 3.88819,-9.35253 8.87816,-9.88113v-4.63001l0.00557,-0.00557z" fill="none" stroke-width="0"></path><path d="M25.67364,12.23493l7.10809,7.10809l-7.10809,7.10809l-0.04372,-0.04372h0.03628v-5.97893c-5.2502,1.1484 -9.18019,5.82593 -9.18019,11.42147c-0.00131,1.33495 0.22639,2.66024 0.67321,3.91819c-1.26913,-1.91248 -1.94443,-4.15753 -1.94096,-6.4528c0,-6.03794 4.57567,-11.00618 10.44793,-11.62824v-5.44866l0.00656,-0.00656z" fill="#ffffff" stroke-width="0"></path><path d="M2,24c0,-12.15026 9.84974,-22 22,-22c12.15026,0 22,9.84974 22,22c0,12.15026 -9.84974,22 -22,22c-12.15026,0 -22,-9.84974 -22,-22z" id="base 1 1 1" fill="none" stroke-width="1"></path><g id="Laag_1 1 1" fill="#000000" stroke-width="1" font-family="Roboto, sans-serif" font-weight="400" font-size="14" text-anchor="start"></g><rect x="2" y="2" width="44" height="22" fill="none" stroke-width="1"></rect><path d="M2,24v-22h44v22z" fill="none" stroke-width="1"></path><path d="M2,24v-22h44v22z" fill="none" stroke-width="1"></path><path d="M2,24v-22h44v22z" fill="none" stroke-width="1"></path><path d="M2,24v-22h44v22z" fill="none" stroke-width="1"></path></g></svg>